{
    "asset" : {
        "generator" : "Khronos glTF Blender I/O v1.6.16",
        "version" : "2.0"
    },
    "scene" : 0,
    "scenes" : [
        {
            "name" : "Scene",
            "nodes" : [
                0,
                1,
                2
            ]
        }
    ],
    "nodes" : [
        {
            "mesh" : 0,
            "name" : "TailRotor",
            "rotation" : [
                0,
                0,
                -0.7071068286895752,
                0.7071068286895752
            ],
            "scale" : [
                0.05437600612640381,
                0.08753766119480133,
                0.05437600612640381
            ],
            "translation" : [
                0.19959113001823425,
                0.40166184306144714,
                6.212454319000244
            ]
        },
        {
            "mesh" : 1,
            "name" : "MainRotor",
            "scale" : [
                0.2502531409263611,
                0.2502531409263611,
                0.2502531409263611
            ],
            "translation" : [
                -0.01583161950111389,
                1.4690072536468506,
                0.09707032144069672
            ]
        },
        {
            "mesh" : 2,
            "name" : "HeliBody"
        }
    ],
    "materials" : [
        {
            "doubleSided" : true,
            "name" : "body_material",
            "pbrMetallicRoughness" : {
                "baseColorTexture" : {
                    "index" : 0
                },
                "metallicFactor" : 0,
                "roughnessFactor" : 0.5
            }
        }
    ],
    "meshes" : [
        {
            "name" : "Cylinder.001",
            "primitives" : [
                {
                    "attributes" : {
                        "POSITION" : 0,
                        "NORMAL" : 1
                    },
                    "indices" : 2
                }
            ]
        },
        {
            "name" : "Cylinder",
            "primitives" : [
                {
                    "attributes" : {
                        "POSITION" : 3,
                        "NORMAL" : 4
                    },
                    "indices" : 5
                }
            ]
        },
        {
            "name" : "Cube.002",
            "primitives" : [
                {
                    "attributes" : {
                        "POSITION" : 6,
                        "NORMAL" : 7,
                        "TEXCOORD_0" : 8
                    },
                    "indices" : 9,
                    "material" : 0
                }
            ]
        }
    ],
    "textures" : [
        {
            "sampler" : 0,
            "source" : 0
        }
    ],
    "images" : [
        {
            "bufferView" : 10,
            "mimeType" : "image/png",
            "name" : "Heli_UV"
        }
    ],
    "accessors" : [
        {
            "bufferView" : 0,
            "componentType" : 5126,
            "count" : 196,
            "max" : [
                11.43819808959961,
                0.8028894662857056,
                15.58287239074707
            ],
            "min" : [
                -11.438189506530762,
                -2.708041191101074,
                -15.582877159118652
            ],
            "type" : "VEC3"
        },
        {
            "bufferView" : 1,
            "componentType" : 5126,
            "count" : 196,
            "type" : "VEC3"
        },
        {
            "bufferView" : 2,
            "componentType" : 5123,
            "count" : 312,
            "type" : "SCALAR"
        },
        {
            "bufferView" : 3,
            "componentType" : 5126,
            "count" : 360,
            "max" : [
                20.33768653869629,
                0.30322426557540894,
                17.62836265563965
            ],
            "min" : [
                -20.433177947998047,
                -1.1179070472717285,
                -21.20123291015625
            ],
            "type" : "VEC3"
        },
        {
            "bufferView" : 4,
            "componentType" : 5126,
            "count" : 360,
            "type" : "VEC3"
        },
        {
            "bufferView" : 5,
            "componentType" : 5123,
            "count" : 600,
            "type" : "SCALAR"
        },
        {
            "bufferView" : 6,
            "componentType" : 5126,
            "count" : 1498,
            "max" : [
                1.3202077150344849,
                2.027228832244873,
                6.823624610900879
            ],
            "min" : [
                -1.3202077150344849,
                -2.01670503616333,
                -2.321249008178711
            ],
            "type" : "VEC3"
        },
        {
            "bufferView" : 7,
            "componentType" : 5126,
            "count" : 1498,
            "type" : "VEC3"
        },
        {
            "bufferView" : 8,
            "componentType" : 5126,
            "count" : 1498,
            "type" : "VEC2"
        },
        {
            "bufferView" : 9,
            "componentType" : 5123,
            "count" : 2226,
            "type" : "SCALAR"
        }
    ],
    "bufferViews" : [
        {
            "buffer" : 0,
            "byteLength" : 2352,
            "byteOffset" : 0
        },
        {
            "buffer" : 0,
            "byteLength" : 2352,
            "byteOffset" : 2352
        },
        {
            "buffer" : 0,
            "byteLength" : 624,
            "byteOffset" : 4704
        },
        {
            "buffer" : 0,
            "byteLength" : 4320,
            "byteOffset" : 5328
        },
        {
            "buffer" : 0,
            "byteLength" : 4320,
            "byteOffset" : 9648
        },
        {
            "buffer" : 0,
            "byteLength" : 1200,
            "byteOffset" : 13968
        },
        {
            "buffer" : 0,
            "byteLength" : 17976,
            "byteOffset" : 15168
        },
        {
            "buffer" : 0,
            "byteLength" : 17976,
            "byteOffset" : 33144
        },
        {
            "buffer" : 0,
            "byteLength" : 11984,
            "byteOffset" : 51120
        },
        {
            "buffer" : 0,
            "byteLength" : 4452,
            "byteOffset" : 63104
        },
        {
            "buffer" : 0,
            "byteLength" : 39946,
            "byteOffset" : 67556
        }
    ],
    "samplers" : [
        {
            "magFilter" : 9729,
            "minFilter" : 9987
        }
    ],
    "buffers" : [
        {
            "byteLength" : 107504,
            "uri" : "data:application/octet-stream;base64,"
        }
    ]
}
